# xmcd
#
# Track frame offsets:
# 150
# 17687
# 28787
# 41716
# 55255
# 69727
# 86078
# 95824
# 108081
# 121835
# 134672
# 147535
# 158212
#
# Disc length: 2277 seconds
#
#
# Revision: 0
# Processed by: cddbd v1.5PL3 Copyright (c) Steve Scherf et al.
# Submitted via: FreeRIP 2.60 
#
DISCID=bc08e30d
DTITLE=Melvin Goins and Windy Mountain - Light In The Window Again
DYEAR=2003
DGENRE=Bluegrass
TTITLE0=Light in the Window Again
TTITLE1=Creecy Greens
TTITLE2=I Know You're Married
TTITLE3=Brown Eyed Darlin'
TTITLE4=Slowly
TTITLE5=Fifty Years
TTITLE6=Hen Scratch and Stomp
TTITLE7=The Family Who Prays
TTITLE8=Talking to the Birds
TTITLE9=We Live in Two Different Worlds
TTITLE10=Down in St. Cloud
TTITLE11=The Number 11 Tragedy
TTITLE12=Welcome to New York
EXTD=
EXTT0=
EXTT1=
EXTT2=
EXTT3=
EXTT4=
EXTT5=
EXTT6=
EXTT7=
EXTT8=
EXTT9=
EXTT10=
EXTT11=
EXTT12=
PLAYORDER=
